PathFileType	4	(X/Y/Z)	28_1_12_p1_0-214_filt_butterworth.trc
DataRate	CameraRate	NumFrames	NumMarkers	Units	OrigDataRate	OrigDataStartFrame	OrigNumFrames
59.0	59.0	5	27	m	59.0	160	214
Frame#	Time	RHip			RKnee			RAnkle			RBigToe			RSmallToe			RHeel			LHip			LKnee			LAnkle			LBigToe			LSmallToe			LHeel			Neck			Head			Nose			RShoulder			RElbow			RWrist			RThumb			RIndex			RPinky			LShoulder			LElbow			LWrist			LThumb			LIndex			LPinky			
		X1	Y1	Z1	X2	Y2	Z2	X3	Y3	Z3	X4	Y4	Z4	X5	Y5	Z5	X6	Y6	Z6	X7	Y7	Z7	X8	Y8	Z8	X9	Y9	Z9	X10	Y10	Z10	X11	Y11	Z11	X12	Y12	Z12	X13	Y13	Z13	X14	Y14	Z14	X15	Y15	Z15	X16	Y16	Z16	X17	Y17	Z17	X18	Y18	Z18	X19	Y19	Z19	X20	Y20	Z20	X21	Y21	Z21	X22	Y22	Z22	X23	Y23	Z23	X24	Y24	Z24	X25	Y25	Z25	X26	Y26	Z26	X27	Y27	Z27	
160	2.711864406779661	0.21113725370953454	0.5654787337301338	0.9542188717262127	0.20307925494039808	0.7771906127683508	1.3268737137869637	0.22339767235546332	1.0397270758439547	1.7273216058027823	0.19017005988002048	0.9131606373344561	1.810324199521837	0.25481624704283035	0.8921883565470741	1.7928444904830165	0.20336883012955023	1.1693862265495962	1.7793407920125761	-0.02108828432796501	0.5533015973858467	0.9575950881622386	0.008512716586557976	0.7892797771388527	1.3321824419983364	0.018451930247755967	1.066732910525766	1.744725734858806	0.0201200683885826	0.883985973043377	1.7985006500500726	-0.03787765402015532	0.9422627116030338	1.8022459622400828	0.04643412632550558	1.131417143300129	1.7805953644402006	0.07275472030280808	0.33750429908595647	0.3328428480398467	0.08086158295199314	0.18637891703122542	0.13017677967076008	0.08258411582691248	0.18588941439130507	0.26591068765155335	0.24856639254821994	0.357606411499816	0.4338867837704921	0.33814084851873927	0.4773267305651854	0.6946508827335025	0.3329019800605738	0.42949720131042907	0.9764576473877716	0.29675238821907307	0.4787856472378055	1.1093557813447377	0.3129204572742061	0.4679374928282838	1.1192456667803854	0.34933542231236997	0.4796899827338647	1.1000762662437369	-0.10205288227175068	0.4021408824092533	0.41755872314227427	-0.14787301256733676	0.4566993240514281	0.7098591717031102	-0.1805876469431259	0.4675345589161959	0.9775789305079756	-0.1323346435195864	0.5114439965049863	1.0722016301121517	-0.1679785423246646	0.47733116097126693	1.0990939254784222	-0.20303278172527012	0.5101241633435607	1.0942278883091852
161	2.7288135593220337	0.21366190955937592	0.5723389297449704	0.9518920457786078	0.20290229274977392	0.7765148495231203	1.3252889535246823	0.22197385091247512	1.0356181364219048	1.726678872746951	0.18990634951350766	0.9107431245345711	1.8086661213524584	0.25481859281007624	0.8919869098479589	1.7926144633764522	0.20339902336443094	1.169378606541335	1.779283132787369	-0.019815909132141846	0.5538898384116356	0.954399979020317	0.00860438202647802	0.7893740052675825	1.332302577415919	0.018783022603982433	1.066773066279557	1.746843693708397	0.020159101634602078	0.883804667995068	1.7984387178935368	-0.037653433892128704	0.9421084765178462	1.801624867686519	0.046397325792333584	1.1314608624983569	1.7806539247915012	0.07276205938141714	0.3375961679374948	0.33283225344750406	0.07981214837548911	0.18317791320828222	0.13115446696903116	0.08247370336603096	0.18565352553281306	0.26630090206923396	0.24858243184992598	0.35757614625400924	0.43389883698782883	0.3397675458528214	0.47424494696502484	0.6953432583634866	0.34040359264478715	0.4369102865515457	0.9769398965231906	0.3121426136050234	0.4859751057068792	1.1120122232200071	0.32581635630432565	0.47464040788710493	1.121101263548132	0.3625506039396877	0.49829620875989133	1.1013198791404737	-0.10208335806691524	0.40206554099827396	0.4175606216780061	-0.1511405652990622	0.46017357019778354	0.7106041541095527	-0.1876117971270592	0.47589783798703617	0.9772184933885226	-0.14391089274087435	0.5271210451235958	1.0731012643638471	-0.1752716282413773	0.4778948235276901	1.0968418367036266	-0.21296568977816366	0.5298841558857893	1.0944820090210816
162	2.7457627118644066	0.21638528285014694	0.5806930331005772	0.9495937366825278	0.2030733123860637	0.7767694117126946	1.3247489347393102	0.22026465674367973	1.0299749025591918	1.725781311399415	0.18842601329371178	0.9100909817692776	1.8085752773643808	0.2548155768716053	0.8916628477405997	1.7925912499201906	0.20342300664380075	1.1693190349546874	1.7792123361601637	-0.018703579780950625	0.5570028401375138	0.9514940656836488	0.00867520938098992	0.7895295181590188	1.332461931508705	0.019082133503570173	1.066860047852974	1.7490564882786792	0.020168073392080068	0.8837698652185519	1.7984210433726175	-0.037471913583986986	0.9420667519011423	1.8022405534261017	0.04639536184798006	1.1314032790535669	1.7806902107390683	0.0727435810288035	0.3376131152289295	0.3328748262710235	0.07901129556673288	0.18059763455397335	0.132487711655014	0.08241969688612213	0.1854794692506459	0.2670014158034084	0.2486108010841961	0.3575330459804837	0.43391491045806946	0.3416440230933765	0.46979028135765155	0.6958293317421552	0.35027960874477726	0.4493652245098945	0.9772759111017274	0.3213751673525105	0.48917188717340626	1.112343511867522	0.33334412709246025	0.480055214180657	1.1216132097432354	0.3776368757804601	0.5202785416476042	1.1030851209966208	-0.10214472805729465	0.40190453482108074	0.41743953134823114	-0.15606671867500688	0.468795511486915	0.7111181031526526	-0.1948466523717839	0.4913063627200841	0.9767095904310296	-0.15170299002983165	0.535235958048669	1.0734836788324933	-0.1805026654078433	0.48046964652361246	1.0944736112804505	-0.21919330496985961	0.5422381853274116	1.093685717167918
163	2.76271186440678	0.21722558909787643	0.5835892202378854	0.9483463960557567	0.20348441657695654	0.7777360238516444	1.3254286902420436	0.21904189015192044	1.0256805117844967	1.7250887878665584	0.18677891090389948	0.9112463896616458	1.809895237254153	0.25483345206894165	0.8914127744350483	1.7926626439680444	0.20343288000211582	1.1692712391205826	1.7791675270084741	-0.017946488159016304	0.5601125542627384	0.9498132766051551	0.008701360313792516	0.7895786088593393	1.3325080197570034	0.01920609247135446	1.0671630170877688	1.7502461716649453	0.020157731562635187	0.8842089988133202	1.7985254734734244	-0.037406249760478676	0.9421603862131693	1.8035895704955314	0.04637757779691905	1.1311779228053533	1.7806920186354727	0.07271896293055437	0.33756184677515283	0.3329323671177638	0.07867938785772804	0.17946638073626592	0.1335281305563345	0.08241437619108462	0.18540797983276505	0.2676930601233181	0.24865157525664355	0.35750448958100306	0.43392103013679206	0.343037308438774	0.4662932583359248	0.6964996701475581	0.36192244083657565	0.4646108995248696	0.9762587209354578	0.3266066807102635	0.48850898546089616	1.1108603754137316	0.3385435192225577	0.4838221160300995	1.1205992913348866	0.39072371350184126	0.5379716789912999	1.1045005164924528	-0.10209973644561549	0.4017531484506358	0.41711371546731824	-0.16255417486579452	0.4820385013484749	0.7110807909164644	-0.20179514426756734	0.5084892756276519	0.9763326033283451	-0.15688449709718022	0.5391607817119147	1.0731001902554054	-0.1878327177934073	0.49281460152215834	1.0922138680707505	-0.22222388816431712	0.5482717931300796	1.091329085905158
164	2.7796610169491527	0.21578339346222783	0.5796784447099551	0.9483074837354166	0.2037875014353877	0.7785185747842175	1.325985878242636	0.21859346947541552	1.0240340640367909	1.7248093278458119	0.18612487474590975	0.9138978213055233	1.8113811890289402	0.25490411746838526	0.8914149466286709	1.7927449905268065	0.20342588935280698	1.1692549759072373	1.779150893884231	-0.01768054809698401	0.5617394523378132	0.9493516132461923	0.008690043871292038	0.7894962839808883	1.3324542741278322	0.019219386498209153	1.0676578997386639	1.7500547462294562	0.020147545576333564	0.8850875316242865	1.7987500800467202	-0.03742413140052674	0.9423210900872717	1.8047500793700086	0.04632590910968675	1.1308521747764735	1.7806657665179826	0.07269847406018999	0.33746225198146756	0.33298267236493967	0.07865895727411638	0.17935679983209082	0.13396249148768977	0.08243363400909005	0.18545405470606802	0.2679725830857949	0.2486877328055302	0.35748122590217624	0.4339217909157037	0.3436022976181756	0.46487019030518145	0.6972080689895509	0.37282292593765604	0.4779516370163576	0.9728777149006673	0.32995619731743037	0.4870396333242214	1.108491060979939	0.34422382368403215	0.4875875254935875	1.1185886702601486	0.3986969783907622	0.5471618748516193	1.1050443234223786	-0.10162269673899897	0.40188983782094334	0.41684970555703765	-0.16938983037597577	0.4961218502939927	0.7104593323687588	-0.2075449262817154	0.5222361650225701	0.9760332490103505	-0.1617483745821057	0.5447357359000009	1.071777988399555	-0.19763363095161815	0.5154757362616982	1.090032803049971	-0.22377804051591432	0.5513494542424604	1.0878444119831
